<?xml version="1.0" standalone="no"?>
<!DOCTYPE svg PUBLIC "-//W3C//DTD SVG 20010904//EN"
 "http://www.w3.org/TR/2001/REC-SVG-20010904/DTD/svg10.dtd">
<svg version="1.0" xmlns="http://www.w3.org/2000/svg"
 width="53.000000pt" height="53.000000pt" viewBox="0 0 53.000000 53.000000"
 preserveAspectRatio="xMidYMid meet">

<g transform="translate(0.000000,53.000000) scale(0.100000,-0.100000)"
fill="#000000" stroke="none">
<path d="M212 479 l-52 -31 1 -100 c1 -88 3 -99 18 -94 11 4 10 1 -4 -9 -19
-15 -20 -14 -25 9 l-5 25 -32 -20 c-36 -23 -39 -29 -20 -48 10 -11 10 -13 0
-7 -20 11 -16 -49 3 -65 14 -12 12 -15 -22 -30 -30 -13 -35 -18 -22 -24 10 -4
24 1 37 14 24 24 39 26 63 8 15 -12 15 -14 -3 -25 -10 -7 -26 -12 -34 -12 -8
0 -15 -4 -15 -10 0 -16 18 -12 49 11 24 17 32 19 50 9 18 -9 20 -14 10 -26 -6
-8 -20 -14 -30 -14 -11 0 -19 -4 -19 -10 0 -16 20 -12 47 10 19 15 30 17 43
10 27 -15 28 -13 33 28 l4 37 1 -37 c1 -21 5 -38 10 -38 4 0 48 24 97 53 82
48 90 55 93 86 3 25 0 31 -10 26 -10 -6 -11 -5 0 6 19 21 15 27 -43 60 -53 30
-71 45 -40 33 12 -5 15 5 15 61 0 50 -3 64 -12 59 -10 -6 -10 -4 0 8 11 14 6
20 -41 47 -30 17 -63 31 -73 31 -11 0 -43 -14 -72 -31z m53 -107 c-3 -3 -11 0
-18 7 -9 10 -8 11 6 5 10 -3 15 -9 12 -12z m60 8 c-3 -5 -12 -10 -18 -10 -7 0
-6 4 3 10 19 12 23 12 15 0z m-48 -36 c-3 -3 -12 -4 -19 -1 -8 3 -5 6 6 6 11
1 17 -2 13 -5z m59 -10 c19 -15 19 -15 -1 -6 -11 5 -27 12 -35 15 -13 5 -13 6
1 6 8 1 24 -6 35 -15z m-96 1 c0 -2 -10 -9 -22 -15 -22 -11 -22 -10 -4 4 21
17 26 19 26 11z m57 -31 c-3 -3 -12 -4 -19 -1 -8 3 -5 6 6 6 11 1 17 -2 13 -5z
m53 -30 c0 -2 -9 0 -20 6 -11 6 -20 13 -20 16 0 2 9 0 20 -6 11 -6 20 -13 20
-16z m-10 -40 c0 -2 -9 0 -20 6 -11 6 -20 13 -20 16 0 2 9 0 20 -6 11 -6 20
-13 20 -16z m65 8 c-3 -3 -11 0 -18 7 -9 10 -8 11 6 5 10 -3 15 -9 12 -12z
m-143 -9 c-6 -2 -9 -9 -6 -14 4 -6 11 -6 19 1 8 7 22 10 32 7 14 -4 13 -5 -5
-6 -12 0 -25 -8 -28 -16 -7 -17 -20 -12 -34 16 -9 16 -7 19 12 18 13 0 17 -3
10 -6z m-22 -59 c0 -2 -9 0 -20 6 -11 6 -20 13 -20 16 0 2 9 0 20 -6 11 -6 20
-13 20 -16z m130 21 c0 -2 -10 -9 -22 -15 -22 -11 -22 -10 -4 4 21 17 26 19
26 11z m-200 -31 c0 -2 -9 0 -20 6 -11 6 -20 13 -20 16 0 2 9 0 20 -6 11 -6
20 -13 20 -16z m270 21 c0 -2 -10 -9 -22 -15 -22 -11 -22 -10 -4 4 21 17 26
19 26 11z m-143 -31 c-3 -3 -12 -4 -19 -1 -8 3 -5 6 6 6 11 1 17 -2 13 -5z
m-57 -30 c0 -2 -9 0 -20 6 -11 6 -20 13 -20 16 0 2 9 0 20 -6 11 -6 20 -13 20
-16z m130 21 c0 -2 -10 -9 -22 -15 -22 -11 -22 -10 -4 4 21 17 26 19 26 11z"/>
</g>
</svg>
